<?xml version="1.0" encoding="UTF-8"?>
<svg version="1.1" xmlns="http://www.w3.org/2000/svg" width="751" height="751">
<path d="M0 0 C0.9226918 -0.00705963 1.84538361 -0.01411926 2.79603577 -0.02139282 C41.44866145 -0.25006693 41.44866145 -0.25006693 57.98828125 3.203125 C58.98053711 3.40711914 59.97279297 3.61111328 60.99511719 3.82128906 C82.99922979 8.47405156 103.76262487 15.37971763 123.98828125 25.203125 C124.70935059 25.55068848 125.43041992 25.89825195 126.17333984 26.25634766 C183.86910103 54.41594201 229.054508 107.04791745 250.09375 167.4375 C257.71859402 190.26214632 263.06777853 214.06401307 263.19140625 238.21484375 C263.19846588 239.13753555 263.20552551 240.06022736 263.21279907 241.01087952 C263.44147318 279.6635052 263.44147318 279.6635052 259.98828125 296.203125 C259.68229004 297.69150879 259.68229004 297.69150879 259.37011719 299.20996094 C254.71735469 321.21407354 247.81168862 341.97746862 237.98828125 362.203125 C237.64071777 362.92419434 237.2931543 363.64526367 236.93505859 364.38818359 C208.77546424 422.08394478 156.1434888 467.26935175 95.75390625 488.30859375 C72.92925993 495.93343777 49.12739318 501.28262228 24.9765625 501.40625 C24.0538707 501.41330963 23.13117889 501.42036926 22.18052673 501.42764282 C-16.47209895 501.65631693 -16.47209895 501.65631693 -33.01171875 498.203125 C-34.50010254 497.89713379 -34.50010254 497.89713379 -36.01855469 497.58496094 C-58.02266729 492.93219844 -78.78606237 486.02653237 -99.01171875 476.203125 C-99.73278809 475.85556152 -100.45385742 475.50799805 -101.19677734 475.14990234 C-158.89253853 446.99030799 -204.0779455 394.35833255 -225.1171875 333.96875 C-232.74203152 311.14410368 -238.09121603 287.34223693 -238.21484375 263.19140625 C-238.22190338 262.26871445 -238.22896301 261.34602264 -238.23623657 260.39537048 C-238.46491068 221.7427448 -238.46491068 221.7427448 -235.01171875 205.203125 C-234.80772461 204.21086914 -234.60373047 203.21861328 -234.39355469 202.19628906 C-229.74079219 180.19217646 -222.83512612 159.42878138 -213.01171875 139.203125 C-212.66415527 138.48205566 -212.3165918 137.76098633 -211.95849609 137.01806641 C-183.79890174 79.32230522 -131.1669263 34.13689825 -70.77734375 13.09765625 C-47.95269743 5.47281223 -24.15083068 0.12362772 0 0 Z M-133.96875 180.74609375 C-144.16426278 193.00800108 -145.25172662 206.91392316 -144.01171875 222.203125 C-141.53476343 235.80413114 -132.96852013 247.31613209 -122.0234375 255.4140625 C-108.47610059 264.77710281 -93.02533785 270.4155873 -77.59814453 275.8828125 C-67.42877803 279.56018167 -56.60968012 283.62754042 -51.19921875 293.515625 C-49.36796105 299.20216208 -49.36796105 303.20408792 -51.19921875 308.890625 C-53.85523415 313.74472212 -56.62106546 316.88195616 -61.76171875 319.015625 C-74.24469588 322.64173188 -87.23693459 320.59051708 -98.65234375 314.8828125 C-110.39646607 308.29025304 -117.63739584 299.16454027 -125.01171875 288.203125 C-131.22998472 291.49525554 -137.00134415 295.14386858 -142.69921875 299.265625 C-144.14011398 300.29889007 -145.58151091 301.33145593 -147.0234375 302.36328125 C-147.69810059 302.84684082 -148.37276367 303.33040039 -149.06787109 303.82861328 C-151.68062877 305.67611714 -154.33705074 307.44668947 -157.01171875 309.203125 C-156.18298669 315.77378631 -151.97659859 320.12491839 -148.01171875 325.203125 C-147.48578125 325.89792969 -146.95984375 326.59273437 -146.41796875 327.30859375 C-131.97351774 345.17991706 -108.94433898 356.03355763 -86.4765625 358.921875 C-63.97268155 360.74857109 -39.55374374 357.54200406 -21.3203125 343.06640625 C-18.79788338 340.85223225 -16.38680479 338.57402218 -14.01171875 336.203125 C-13.43550781 335.63851562 -12.85929688 335.07390625 -12.265625 334.4921875 C-3.42914599 325.08191115 0.71111798 311.92030867 1.36328125 299.203125 C0.51660922 282.69302041 -6.07773591 269.42463125 -18.01171875 258.203125 C-31.43827056 246.77917753 -48.62538082 241.28320268 -65.03344727 235.67895508 C-89.51069736 227.20516779 -89.51069736 227.20516779 -95.01171875 216.203125 C-96.18907904 205.90963214 -96.18907904 205.90963214 -92.94921875 201.703125 C-87.06836313 196.69814149 -81.68977026 195.66563459 -74.19921875 195.765625 C-73.00727905 195.77698486 -73.00727905 195.77698486 -71.79125977 195.78857422 C-65.52173588 195.9641337 -60.48356738 197.01285946 -55.01171875 200.203125 C-53.84769531 200.87408203 -53.84769531 200.87408203 -52.66015625 201.55859375 C-46.44184207 205.43724122 -41.08909742 210.08705699 -37.01171875 216.203125 C-32.45204476 215.58983552 -28.75807705 213.7284132 -24.7421875 211.60546875 C-24.06118484 211.25174698 -23.38018219 210.89802521 -22.67854309 210.53358459 C-20.51565909 209.40844773 -18.35743193 208.2746911 -16.19921875 207.140625 C-14.72881504 206.37377458 -13.25811494 205.60749217 -11.78710938 204.84179688 C-8.19184686 202.96880031 -4.60073406 201.08806279 -1.01171875 199.203125 C-2.08680289 195.67251412 -3.03230489 192.71742145 -5.41015625 189.87109375 C-6.11954346 189.02140015 -6.11954346 189.02140015 -6.84326172 188.15454102 C-7.35260254 187.57244873 -7.86194336 186.99035645 -8.38671875 186.390625 C-8.92055176 185.77823975 -9.45438477 185.16585449 -10.00439453 184.53491211 C-23.56186885 169.41556263 -43.38527877 159.3244982 -63.79394531 158.02612305 C-90.50717468 157.45343595 -114.5367029 160.55740057 -133.96875 180.74609375 Z M34.98828125 162.203125 C34.98828125 225.233125 34.98828125 288.263125 34.98828125 353.203125 C50.82828125 353.203125 66.66828125 353.203125 82.98828125 353.203125 C82.98828125 331.093125 82.98828125 308.983125 82.98828125 286.203125 C88.20640625 286.265 93.42453125 286.326875 98.80078125 286.390625 C123.18452697 286.48087946 148.43777225 284.35952379 167.40625 266.9140625 C181.25207143 251.94006303 183.82047727 235.2968387 183.13183594 215.72851562 C182.32041782 201.4541805 175.2273633 189.27980997 164.9296875 179.640625 C130.83690635 151.38843982 71.43957395 162.203125 34.98828125 162.203125 Z " fill="#040404" transform="translate(358.01171875,114.796875)"/>
<path d="M0 0 C39.41176471 0 39.41176471 0 47.96875 7.79296875 C54.10264811 14.29138129 55.45878321 20.4967765 55.2421875 29.29296875 C54.63604639 36.06806214 52.14467675 40.83184657 47.15625 45.4609375 C37.10360282 52.63619654 24.81859842 52.14202344 13.0625 52.0625 C8.751875 52.041875 4.44125 52.02125 0 52 C0 34.84 0 17.68 0 0 Z " fill="#131313" transform="translate(441,313)"/>
<path d="M0 0 C8.53207057 3.69660826 14.43633847 13.74525977 17.75 22.125 C22.04027125 33.74864188 21.55973439 49.50718288 17.3828125 61.015625 C10.05160579 76.83777734 -2.52896445 88.78903411 -18.58984375 95.5 C-22.04045939 96.75885652 -25.49035501 97.91687074 -29 99 C-29.70874268 99.26111572 -30.41748535 99.52223145 -31.14770508 99.79125977 C-38.54120181 102.35319764 -45.54294317 102.41340334 -53.3125 102.3125 C-54.54162109 102.31572266 -55.77074219 102.31894531 -57.03710938 102.32226562 C-84.14408498 102.16491643 -106.12213083 92.22612646 -126 74 C-125.505 73.01 -125.505 73.01 -125 72 C-123.83597656 73.051875 -123.83597656 73.051875 -122.6484375 74.125 C-101.15992746 93.15335329 -75.67098392 101.67347375 -47 100 C-25.62417215 97.84214204 -6.10354762 89.27855461 7.8125 72.6875 C15.99200459 61.59501147 19.5203855 47.41272422 17.53515625 33.81640625 C15.21201758 21.26595888 10.62911975 12.04201004 1.7578125 2.86328125 C0 1 0 1 0 0 Z " fill="#B3B3B3" transform="translate(340,373)"/>
<path d="M0 0 C1.51231201 0.31396729 1.51231201 0.31396729 3.05517578 0.63427734 C16.67031371 3.5425449 29.90449 7.28360943 43 12 C39.25971768 13.24676077 37.78655442 12.57360767 34.0390625 11.453125 C32.84410156 11.1025 31.64914062 10.751875 30.41796875 10.390625 C29.16628906 10.01421875 27.91460937 9.6378125 26.625 9.25 C-1.15882841 0.98276094 -28.02194054 -1.94343498 -57 -1 C-58.16096191 -0.96277832 -59.32192383 -0.92555664 -60.51806641 -0.88720703 C-74.1624769 -0.36308658 -86.98362972 1.2120209 -100.13793945 4.96728516 C-105.64650871 6.53369837 -110.26718961 7.30988164 -116 7 C-108.99871153 2.33247436 -99.14760055 1.62978511 -91 0 C-90.1548584 -0.17241211 -89.3097168 -0.34482422 -88.43896484 -0.52246094 C-60.74197554 -5.88244961 -27.6092531 -5.78153402 0 0 Z " fill="#A1A1A1" transform="translate(416,118)"/>
<path d="M0 0 C0.66 0.33 1.32 0.66 2 1 C-7.57 10.57 -17.14 20.14 -27 30 C-27.66 29.67 -28.32 29.34 -29 29 C-19.69597046 18.90249201 -10.26645794 9.12378711 0 0 Z " fill="#212121" transform="translate(209,174)"/>
<path d="M0 0 C0 0.33 0 0.66 0 1 C-0.58789307 1.10022461 -1.17578613 1.20044922 -1.78149414 1.30371094 C-16.19336461 3.75266876 -16.19336461 3.75266876 -30.375 7.25 C-35.48325101 8.69818633 -39.71142289 9.43172058 -45 9 C-42.16401879 7.10934586 -40.58719819 6.51336878 -37.3515625 5.78125 C-35.9759314 5.46740356 -35.9759314 5.46740356 -34.57250977 5.1472168 C-33.59983154 4.93363525 -32.62715332 4.72005371 -31.625 4.5 C-30.13794556 4.16899292 -30.13794556 4.16899292 -28.62084961 3.83129883 C-9.18415179 -0.42716985 -9.18415179 -0.42716985 0 0 Z " fill="#AEAEAE" transform="translate(345,116)"/>
<path d="M0 0 C7.2583372 -0.41501441 13.61833962 1.14060412 20.625 2.9375 C22.82506944 3.49008154 25.02557752 4.04092021 27.2265625 4.58984375 C28.19158691 4.83597412 29.15661133 5.08210449 30.15087891 5.33569336 C33.08720041 6.02033182 36.02166207 6.53520295 39 7 C39 7.33 39 7.66 39 8 C32.02280187 8.31905358 25.73839912 7.11675606 18.9375 5.625 C17.36258789 5.29242187 17.36258789 5.29242187 15.75585938 4.953125 C10.43994299 3.81567279 5.20219168 2.57910499 0 1 C0 0.67 0 0.34 0 0 Z " fill="#9A9A9A" transform="translate(300,606)"/>
<path d="M0 0 C0 5.61 0 11.22 0 17 C-6.06896552 9.4137931 -6.06896552 9.4137931 -5.875 5.4375 C-4.94134878 2.83661445 -3.14450934 0 0 0 Z " fill="#666666" transform="translate(751,443)"/>
<path d="M0 0 C0.33 0 0.66 0 1 0 C1.41501441 7.2583372 -0.14060412 13.61833962 -1.9375 20.625 C-2.49008154 22.82506944 -3.04092021 25.02557752 -3.58984375 27.2265625 C-3.83597412 28.19158691 -4.08210449 29.15661133 -4.33569336 30.15087891 C-5.02033182 33.08720041 -5.53520295 36.02166207 -6 39 C-6.33 39 -6.66 39 -7 39 C-7.31905358 32.02280187 -6.11675606 25.73839912 -4.625 18.9375 C-4.40328125 17.88755859 -4.1815625 16.83761719 -3.953125 15.75585938 C-2.81567279 10.43994299 -1.57910499 5.20219168 0 0 Z " fill="#BEBEBE" transform="translate(129,295)"/>
<path d="M0 0 C0.33 0 0.66 0 1 0 C1.38614349 6.8218683 0.00865708 12.49577707 -2 19 C-2.33 19 -2.66 19 -3 19 C-3.38614349 12.1781317 -2.00865708 6.50422293 0 0 Z " fill="#999999" transform="translate(129,295)"/>
<path d="M0 0 C4.35522853 0.50642192 7.44239635 1.38411497 11 4 C11 4.66 11 5.32 11 6 C6.49197399 4.74194623 3.5087188 3.09592835 0 0 Z " fill="#A0A0A0" transform="translate(244,582)"/>
<path d="M0 0 C3.48331435 3.01887244 4.79157144 5.56909529 6 10 C5.34 10 4.68 10 4 10 C1.1605948 6.32547562 0 4.73113419 0 0 Z " fill="#969696" transform="translate(582,231)"/>
<path d="M0 0 C4.7517398 0.43197635 6.92000054 1.32769295 10 5 C5.75354935 5 3.61475228 3.18249194 0 1 C0 0.67 0 0.34 0 0 Z " fill="#A3A3A3" transform="translate(324,281)"/>
</svg>
