<?xml version="1.0" encoding="UTF-8"?>
<svg version="1.1" xmlns="http://www.w3.org/2000/svg" width="150" height="151">
<path d="M0 0 C49.5 0 99 0 150 0 C150 49.83 150 99.66 150 151 C100.5 151 51 151 0 151 C0 101.17 0 51.34 0 0 Z " fill="#FEFEFE" transform="translate(0,0)"/>
<path d="M0 0 C1.17079102 0.01160156 1.17079102 0.01160156 2.36523438 0.0234375 C3.53022461 0.01183594 3.53022461 0.01183594 4.71875 0 C8.62825605 0.01346944 10.60720469 0.05975105 13.92773438 2.2734375 C14.31157946 5.20941289 14.53157738 7.95371123 14.61523438 10.8984375 C14.66647461 12.10113281 14.66647461 12.10113281 14.71875 13.328125 C14.80130315 15.30940068 14.86619353 17.29139787 14.92773438 19.2734375 C15.18466064 18.76893066 15.44158691 18.26442383 15.70629883 17.74462891 C16.87628695 15.45837258 18.0580851 13.17842773 19.24023438 10.8984375 C19.64435547 10.104375 20.04847656 9.3103125 20.46484375 8.4921875 C20.86123047 7.73164062 21.25761719 6.97109375 21.66601562 6.1875 C22.20802612 5.1348999 22.20802612 5.1348999 22.76098633 4.06103516 C23.92773438 2.2734375 23.92773438 2.2734375 26.92773438 0.2734375 C31.00264189 -0.06613813 32.45774708 -0.03988736 35.92773438 2.2734375 C36.31157946 5.20941289 36.53157738 7.95371123 36.61523438 10.8984375 C36.64939453 11.70023438 36.68355469 12.50203125 36.71875 13.328125 C36.80130315 15.30940068 36.86619353 17.29139787 36.92773438 19.2734375 C37.54261719 18.15324219 38.1575 17.03304687 38.79101562 15.87890625 C39.60715539 14.4061023 40.42357638 12.93345416 41.24023438 11.4609375 C41.64435547 10.72294922 42.04847656 9.98496094 42.46484375 9.22460938 C42.86123047 8.51240234 43.25761719 7.80019531 43.66601562 7.06640625 C44.02735596 6.4118042 44.38869629 5.75720215 44.76098633 5.08276367 C45.98286043 3.18795116 47.22586142 1.7498894 48.92773438 0.2734375 C51.72654481 -0.241987 54.04532833 0.04467512 56.92773438 0.2734375 C58.92773438 2.2734375 58.92773438 2.2734375 59.24462891 5.02880859 C58.87443798 8.81913019 57.80136866 10.92529938 55.85742188 14.1875 C55.20773438 15.27804688 54.55804688 16.36859375 53.88867188 17.4921875 C53.2003125 18.61625 52.51195312 19.7403125 51.80273438 20.8984375 C51.13757812 22.03023437 50.47242188 23.16203125 49.78710938 24.328125 C49.1296875 25.41609375 48.47226562 26.5040625 47.79492188 27.625 C47.1979248 28.61322754 46.60092773 29.60145508 45.98583984 30.61962891 C42.95621561 34.52615506 39.78316001 36.97051087 34.86523438 37.7734375 C30.95368251 37.10764144 29.52788484 36.30694638 26.92773438 33.2734375 C25.93036971 29.97644964 25.36413872 26.68651029 24.92773438 23.2734375 C24.55261719 23.94890625 24.1775 24.624375 23.79101562 25.3203125 C18.27033545 34.94326131 18.27033545 34.94326131 13.92773438 37.2734375 C9.71489629 37.95050076 7.78112265 37.85141972 4.22851562 35.4453125 C0.82080374 30.74741428 1.38052756 26.60473361 1.61523438 20.9609375 C1.63779297 19.93419922 1.66035156 18.90746094 1.68359375 17.84960938 C1.74235863 15.3227196 1.82445588 12.79883495 1.92773438 10.2734375 C0.25517578 10.31017578 0.25517578 10.31017578 -1.45117188 10.34765625 C-5.07226563 10.2734375 -5.07226563 10.2734375 -7.00976562 9.0859375 C-8.43631889 6.65240546 -8.42797986 5.04800854 -8.07226562 2.2734375 C-5.45410824 -0.34471989 -3.56758224 0.01231262 0 0 Z " fill="#8942FE" transform="translate(11.072265625,56.7265625)"/>
<path d="M0 0 C4.98357378 2.98827074 8.76503039 6.43180991 10.640625 12.05859375 C11.58847841 19.37746186 10.78756143 24.32380693 6.29296875 30.24609375 C2.14441067 34.79675793 -2.62424746 36.15371369 -8.609375 36.43359375 C-13.90057674 36.37257495 -17.3487419 34.38868956 -21.359375 31.05859375 C-26.38469952 25.6467058 -26.71437479 21.16551923 -26.63671875 14.00390625 C-26.12430164 8.56218086 -23.204109 5.69537264 -19.296875 2.24609375 C-13.81078887 -1.83928954 -6.40738156 -2.55658768 0 0 Z " fill="#8A42FE" transform="translate(96.359375,57.94140625)"/>
<path d="M0 0 C4.98357378 2.98827074 8.76503039 6.43180991 10.640625 12.05859375 C11.38408895 18.92040033 10.68628008 24.36568497 6.640625 30.05859375 C2.19308788 34.50613087 -2.54313936 36.10249286 -8.734375 36.49609375 C-13.93788675 36.37324524 -17.41240806 34.32689669 -21.359375 31.05859375 C-26.44821977 25.70878258 -26.72246524 20.91068953 -26.63671875 13.74609375 C-26.09527372 8.49941516 -23.07486559 5.57185604 -19.296875 2.24609375 C-13.81078887 -1.83928954 -6.40738156 -2.55658768 0 0 Z " fill="#8942FE" transform="translate(136.359375,57.94140625)"/>
<path d="M0 0 C3.37013879 0.67402776 4.51677007 1.7087875 6.5 4.5 C6.98746608 7.84262452 6.81565201 9.79442492 5.4375 12.875 C3.5 14.5 3.5 14.5 0 14.9375 C-3.5 14.5 -3.5 14.5 -5.4375 13.4375 C-7.13902633 10.3347167 -6.92519574 7.96230815 -6.5 4.5 C-4.52547983 1.6479153 -3.40524375 0.68104875 0 0 Z " fill="#FAF8FE" transform="translate(88.5,67.5)"/>
<path d="M0 0 C3.37013879 0.67402776 4.51677007 1.7087875 6.5 4.5 C6.98746608 7.84262452 6.81565201 9.79442492 5.4375 12.875 C3.5 14.5 3.5 14.5 0 14.9375 C-3.5 14.5 -3.5 14.5 -5.4375 13.4375 C-7.13902633 10.3347167 -6.92519574 7.96230815 -6.5 4.5 C-4.52547983 1.6479153 -3.40524375 0.68104875 0 0 Z " fill="#FBF8FE" transform="translate(128.5,67.5)"/>
</svg>
